<svg width="346" height="82" viewBox="0 0 346 82" fill="none" xmlns="http://www.w3.org/2000/svg">
<path d="M49.8859 55.35C47.3193 55.35 45.0193 54.9333 42.9859 54.1C40.9526 53.2667 39.3193 52.0333 38.0859 50.4C36.8859 48.7667 36.2526 46.8 36.1859 44.5H45.2859C45.4193 45.8 45.8693 46.8 46.6359 47.5C47.4026 48.1667 48.4026 48.5 49.6359 48.5C50.9026 48.5 51.9026 48.2167 52.6359 47.65C53.3693 47.05 53.7359 46.2333 53.7359 45.2C53.7359 44.3333 53.4359 43.6167 52.8359 43.05C52.2693 42.4833 51.5526 42.0167 50.6859 41.65C49.8526 41.2833 48.6526 40.8667 47.0859 40.4C44.8193 39.7 42.9693 39 41.5359 38.3C40.1026 37.6 38.8693 36.5667 37.8359 35.2C36.8026 33.8333 36.2859 32.05 36.2859 29.85C36.2859 26.5833 37.4693 24.0333 39.8359 22.2C42.2026 20.3333 45.2859 19.4 49.0859 19.4C52.9526 19.4 56.0693 20.3333 58.4359 22.2C60.8026 24.0333 62.0693 26.6 62.2359 29.9H52.9859C52.9193 28.7667 52.5026 27.8833 51.7359 27.25C50.9693 26.5833 49.9859 26.25 48.7859 26.25C47.7526 26.25 46.9193 26.5333 46.2859 27.1C45.6526 27.6333 45.3359 28.4167 45.3359 29.45C45.3359 30.5833 45.8693 31.4667 46.9359 32.1C48.0026 32.7333 49.6693 33.4167 51.9359 34.15C54.2026 34.9167 56.0359 35.65 57.4359 36.35C58.8693 37.05 60.1026 38.0667 61.1359 39.4C62.1693 40.7333 62.6859 42.45 62.6859 44.55C62.6859 46.55 62.1693 48.3667 61.1359 50C60.1359 51.6333 58.6693 52.9333 56.7359 53.9C54.8026 54.8667 52.5193 55.35 49.8859 55.35ZM88.9977 26.75V33.85H100.448V40.45H88.9977V48.15H101.948V55H80.4477V19.9H101.948V26.75H88.9977ZM118.548 37.4C118.548 33.9333 119.298 30.85 120.798 28.15C122.298 25.4167 124.382 23.3 127.048 21.8C129.748 20.2667 132.798 19.5 136.198 19.5C140.365 19.5 143.932 20.6 146.898 22.8C149.865 25 151.848 28 152.848 31.8H143.448C142.748 30.3333 141.748 29.2167 140.448 28.45C139.182 27.6833 137.732 27.3 136.098 27.3C133.465 27.3 131.332 28.2167 129.698 30.05C128.065 31.8833 127.248 34.3333 127.248 37.4C127.248 40.4667 128.065 42.9167 129.698 44.75C131.332 46.5833 133.465 47.5 136.098 47.5C137.732 47.5 139.182 47.1167 140.448 46.35C141.748 45.5833 142.748 44.4667 143.448 43H152.848C151.848 46.8 149.865 49.8 146.898 52C143.932 54.1667 140.365 55.25 136.198 55.25C132.798 55.25 129.748 54.5 127.048 53C124.382 51.4667 122.298 49.35 120.798 46.65C119.298 43.95 118.548 40.8667 118.548 37.4ZM188.484 55L181.184 41.75H179.134V55H170.584V19.9H184.934C187.701 19.9 190.051 20.3833 191.984 21.35C193.951 22.3167 195.418 23.65 196.384 25.35C197.351 27.0167 197.834 28.8833 197.834 30.95C197.834 33.2833 197.168 35.3667 195.834 37.2C194.534 39.0333 192.601 40.3333 190.034 41.1L198.134 55H188.484ZM179.134 35.7H184.434C186.001 35.7 187.168 35.3167 187.934 34.55C188.734 33.7833 189.134 32.7 189.134 31.3C189.134 29.9667 188.734 28.9167 187.934 28.15C187.168 27.3833 186.001 27 184.434 27H179.134V35.7ZM224.252 19.9V55H215.702V19.9H224.252ZM268.198 19.9V26.75H258.898V55H250.348V26.75H241.048V19.9H268.198ZM293.539 19.9V55H284.989V19.9H293.539ZM334.085 48.8H320.985L318.885 55H309.935L322.635 19.9H332.535L345.235 55H336.185L334.085 48.8ZM331.885 42.2L327.535 29.35L323.235 42.2H331.885Z" fill="#41296B"/>
<path d="M49.8859 55.35C47.3193 55.35 45.0193 54.9333 42.9859 54.1C40.9526 53.2667 39.3193 52.0333 38.0859 50.4C36.8859 48.7667 36.2526 46.8 36.1859 44.5H45.2859C45.4193 45.8 45.8693 46.8 46.6359 47.5C47.4026 48.1667 48.4026 48.5 49.6359 48.5C50.9026 48.5 51.9026 48.2167 52.6359 47.65C53.3693 47.05 53.7359 46.2333 53.7359 45.2C53.7359 44.3333 53.4359 43.6167 52.8359 43.05C52.2693 42.4833 51.5526 42.0167 50.6859 41.65C49.8526 41.2833 48.6526 40.8667 47.0859 40.4C44.8193 39.7 42.9693 39 41.5359 38.3C40.1026 37.6 38.8693 36.5667 37.8359 35.2C36.8026 33.8333 36.2859 32.05 36.2859 29.85C36.2859 26.5833 37.4693 24.0333 39.8359 22.2C42.2026 20.3333 45.2859 19.4 49.0859 19.4C52.9526 19.4 56.0693 20.3333 58.4359 22.2C60.8026 24.0333 62.0693 26.6 62.2359 29.9H52.9859C52.9193 28.7667 52.5026 27.8833 51.7359 27.25C50.9693 26.5833 49.9859 26.25 48.7859 26.25C47.7526 26.25 46.9193 26.5333 46.2859 27.1C45.6526 27.6333 45.3359 28.4167 45.3359 29.45C45.3359 30.5833 45.8693 31.4667 46.9359 32.1C48.0026 32.7333 49.6693 33.4167 51.9359 34.15C54.2026 34.9167 56.0359 35.65 57.4359 36.35C58.8693 37.05 60.1026 38.0667 61.1359 39.4C62.1693 40.7333 62.6859 42.45 62.6859 44.55C62.6859 46.55 62.1693 48.3667 61.1359 50C60.1359 51.6333 58.6693 52.9333 56.7359 53.9C54.8026 54.8667 52.5193 55.35 49.8859 55.35ZM88.9977 26.75V33.85H100.448V40.45H88.9977V48.15H101.948V55H80.4477V19.9H101.948V26.75H88.9977ZM118.548 37.4C118.548 33.9333 119.298 30.85 120.798 28.15C122.298 25.4167 124.382 23.3 127.048 21.8C129.748 20.2667 132.798 19.5 136.198 19.5C140.365 19.5 143.932 20.6 146.898 22.8C149.865 25 151.848 28 152.848 31.8H143.448C142.748 30.3333 141.748 29.2167 140.448 28.45C139.182 27.6833 137.732 27.3 136.098 27.3C133.465 27.3 131.332 28.2167 129.698 30.05C128.065 31.8833 127.248 34.3333 127.248 37.4C127.248 40.4667 128.065 42.9167 129.698 44.75C131.332 46.5833 133.465 47.5 136.098 47.5C137.732 47.5 139.182 47.1167 140.448 46.35C141.748 45.5833 142.748 44.4667 143.448 43H152.848C151.848 46.8 149.865 49.8 146.898 52C143.932 54.1667 140.365 55.25 136.198 55.25C132.798 55.25 129.748 54.5 127.048 53C124.382 51.4667 122.298 49.35 120.798 46.65C119.298 43.95 118.548 40.8667 118.548 37.4ZM188.484 55L181.184 41.75H179.134V55H170.584V19.9H184.934C187.701 19.9 190.051 20.3833 191.984 21.35C193.951 22.3167 195.418 23.65 196.384 25.35C197.351 27.0167 197.834 28.8833 197.834 30.95C197.834 33.2833 197.168 35.3667 195.834 37.2C194.534 39.0333 192.601 40.3333 190.034 41.1L198.134 55H188.484ZM179.134 35.7H184.434C186.001 35.7 187.168 35.3167 187.934 34.55C188.734 33.7833 189.134 32.7 189.134 31.3C189.134 29.9667 188.734 28.9167 187.934 28.15C187.168 27.3833 186.001 27 184.434 27H179.134V35.7ZM224.252 19.9V55H215.702V19.9H224.252ZM268.198 19.9V26.75H258.898V55H250.348V26.75H241.048V19.9H268.198ZM293.539 19.9V55H284.989V19.9H293.539ZM334.085 48.8H320.985L318.885 55H309.935L322.635 19.9H332.535L345.235 55H336.185L334.085 48.8ZM331.885 42.2L327.535 29.35L323.235 42.2H331.885Z" fill="black" fill-opacity="0.2"/>
</svg>
